<svg width="5" height="5" viewBox="0 0 5 5" fill="none" xmlns="http://www.w3.org/2000/svg">
<path d="M4.49108 3.53898L3.29652 2.34441L4.49108 1.14984C4.71099 0.929945 4.71099 0.573366 4.49108 0.353466C4.27118 0.133566 3.91461 0.133566 3.69471 0.353466L2.50014 1.54803L1.30557 0.353466C1.08567 0.133566 0.72909 0.133566 0.50919 0.353466C0.28929 0.573366 0.28929 0.929945 0.50919 1.14984L1.70376 2.34441L0.50919 3.53898C0.28929 3.75888 0.28929 4.11546 0.50919 4.33536C0.72909 4.55526 1.08567 4.55526 1.30557 4.33536L2.50014 3.14079L3.69471 4.33536C3.91461 4.55526 4.27118 4.55526 4.49108 4.33536C4.71099 4.11546 4.71099 3.75888 4.49108 3.53898Z" fill="#434343"/>
</svg>
