<svg width="15" height="16" viewBox="0 0 15 16" fill="none" xmlns="http://www.w3.org/2000/svg">
<path d="M1.75309 4H2.92181H12.2716" stroke="#B6B6B6" stroke-width="1.2" stroke-linecap="round" stroke-linejoin="round"/>
<path d="M4.6749 4.00001V2.66668C4.6749 2.31305 4.79803 1.97392 5.01721 1.72387C5.23639 1.47382 5.53366 1.33334 5.84362 1.33334H8.18107C8.49103 1.33334 8.7883 1.47382 9.00748 1.72387C9.22666 1.97392 9.34979 2.31305 9.34979 2.66668V4.00001M11.1029 4.00001V13.3333C11.1029 13.687 10.9797 14.0261 10.7606 14.2762C10.5414 14.5262 10.2441 14.6667 9.93416 14.6667H4.09053C3.78057 14.6667 3.4833 14.5262 3.26412 14.2762C3.04494 14.0261 2.92181 13.687 2.92181 13.3333V4.00001H11.1029Z" stroke="#B6B6B6" stroke-width="1.2" stroke-linecap="round" stroke-linejoin="round"/>
<path d="M5.84362 7.33334V11.3333" stroke="#B6B6B6" stroke-width="1.2" stroke-linecap="round" stroke-linejoin="round"/>
<path d="M8.18107 7.33334V11.3333" stroke="#B6B6B6" stroke-width="1.2" stroke-linecap="round" stroke-linejoin="round"/>
</svg>
